#N canvas 0 22 956 565 16;
#X obj 12 20 tgl 30 0 empty empty empty 17 7 0 10 -203904 -1 -1 0 1
;
#X obj 42 20 tgl 30 0 empty empty empty 17 7 0 10 -203904 -1 -1 0 1
;
#X obj 72 20 tgl 30 0 empty empty empty 17 7 0 10 -203904 -1 -1 1 1
;
#X obj 102 20 tgl 30 0 empty empty empty 17 7 0 10 -203904 -1 -1 0
1;
#X obj 132 20 tgl 30 0 empty empty empty 17 7 0 10 -203904 -1 -1 0
1;
#X obj 162 20 tgl 30 0 empty empty empty 17 7 0 10 -203904 -1 -1 0
1;
#X obj 192 20 tgl 30 0 empty empty empty 17 7 0 10 -203904 -1 -1 1
1;
#X obj 222 20 tgl 30 0 empty empty empty 17 7 0 10 -203904 -1 -1 0
1;
#X obj 252 20 tgl 30 0 empty empty empty 17 7 0 10 -203904 -1 -1 0
1;
#X obj 282 20 tgl 30 0 empty empty empty 17 7 0 10 -203904 -1 -1 0
1;
#X obj 312 20 tgl 30 0 empty empty empty 17 7 0 10 -203904 -1 -1 1
1;
#X obj 342 20 tgl 30 0 empty empty empty 17 7 0 10 -203904 -1 -1 0
1;
#X obj 372 20 tgl 30 0 empty empty empty 17 7 0 10 -203904 -1 -1 0
1;
#X obj 402 20 tgl 30 0 empty empty empty 17 7 0 10 -203904 -1 -1 0
1;
#X obj 432 20 tgl 30 0 empty empty empty 17 7 0 10 -203904 -1 -1 0
1;
#X obj 462 20 tgl 30 0 empty empty empty 17 7 0 10 -203904 -1 -1 0
1;
#X floatatom 17 379 5 0 0 0 - - -;
#X obj 17 404 == 1;
#X floatatom -265 303 5 0 0 0 - - -;
#X floatatom -226 303 5 0 0 0 - - -;
#X floatatom -189 303 5 0 0 0 - - -;
#X floatatom -150 303 5 0 0 0 - - -;
#X floatatom -110 303 5 0 0 0 - - -;
#X floatatom -71 303 5 0 0 0 - - -;
#X floatatom -34 307 5 0 0 0 - - -;
#X floatatom 5 307 5 0 0 0 - - -;
#X floatatom 45 307 5 0 0 0 - - -;
#X floatatom 84 307 5 0 0 0 - - -;
#X floatatom 121 307 5 0 0 0 - - -;
#X floatatom 160 307 5 0 0 0 - - -;
#X floatatom 200 307 5 0 0 0 - - -;
#X floatatom 239 307 5 0 0 0 - - -;
#X floatatom 276 307 5 0 0 0 - - -;
#X floatatom 315 307 5 0 0 0 - - -;
#X obj 17 430 tgl 15 0 empty empty empty 17 7 0 10 -262144 -1 -1 0
1;
#X obj 18 464 sel 0 1;
#X obj -156 -9 inlet;
#X obj 107 515 outlet;
#X obj 339 76 cnv 15 100 60 empty empty empty 20 12 0 14 -233017 -66577
0;
#X obj -119 165 sel 0 1 2 3 4 5 6 7 8 9 10 11 12 13 14 15;
#X connect 0 0 18 0;
#X connect 1 0 19 0;
#X connect 2 0 20 0;
#X connect 3 0 21 0;
#X connect 4 0 22 0;
#X connect 5 0 23 0;
#X connect 6 0 24 0;
#X connect 7 0 25 0;
#X connect 8 0 26 0;
#X connect 9 0 27 0;
#X connect 10 0 28 0;
#X connect 11 0 29 0;
#X connect 12 0 30 0;
#X connect 13 0 31 0;
#X connect 14 0 32 0;
#X connect 15 0 33 0;
#X connect 16 0 17 0;
#X connect 17 0 34 0;
#X connect 18 0 16 0;
#X connect 19 0 16 0;
#X connect 20 0 16 0;
#X connect 21 0 16 0;
#X connect 22 0 16 0;
#X connect 23 0 16 0;
#X connect 24 0 16 0;
#X connect 25 0 16 0;
#X connect 26 0 16 0;
#X connect 27 0 16 0;
#X connect 28 0 16 0;
#X connect 29 0 16 0;
#X connect 30 0 16 0;
#X connect 31 0 16 0;
#X connect 32 0 16 0;
#X connect 33 0 16 0;
#X connect 34 0 35 0;
#X connect 35 1 37 0;
#X connect 36 0 39 0;
#X connect 39 0 18 0;
#X connect 39 1 19 0;
#X connect 39 2 20 0;
#X connect 39 3 21 0;
#X connect 39 4 22 0;
#X connect 39 5 23 0;
#X connect 39 6 24 0;
#X connect 39 7 25 0;
#X connect 39 8 26 0;
#X connect 39 9 27 0;
#X connect 39 10 28 0;
#X connect 39 11 29 0;
#X connect 39 12 30 0;
#X connect 39 13 31 0;
#X connect 39 14 32 0;
#X connect 39 15 33 0;
#X coords 0 -1 1 1 485 45 1 10 10;
